# xmcd CD Database Entry
#
# Track frame offsets:
# 150
# 24351
# 46762
# 65666
# 78007
# 94665
# 125251
# 150607
# 169015
# 186044
# 205268
# 233191
#
# Disc length: 3452 seconds
#
# Revision: 3
# Processed by: cddbd v1.5.2PL0 Copyright (c) Steve Scherf et al.
# Submitted via: tcd 2.0b
#
DISCID=8b0d7a0c
DTITLE=HY - Street Story
DYEAR=1900
DGENRE=
TTITLE0=AM11:00
TTITLE1=隆福丸
TTITLE2=トゥータン
TTITLE3=男前　
TTITLE4=コントロール
TTITLE5=かなぶんの羽
TTITLE6=あなた
TTITLE7=33ナンバー
TTITLE8=DREAMING
TTITLE9=くも
TTITLE10=さあ行こう
TTITLE11=Street Story
EXTD=
EXTT0=
EXTT1=
EXTT2=
EXTT3=
EXTT4=
EXTT5=
EXTT6=
EXTT7=
EXTT8=
EXTT9=
EXTT10=
EXTT11=
PLAYORDER=
